<?xml version="1.0" encoding="UTF-8"?>
<svg version="1.1" xmlns="http://www.w3.org/2000/svg" width="512" height="512">
<path d="M0 0 C6.73707448 4.23051983 12.41344698 8.94326741 15.6171875 16.31298828 C17.39425567 19.6314889 17.39425567 19.6314889 20.53808594 21.45281982 C23.0682879 21.73458382 25.46385125 21.73528907 28.0078125 21.63671875 C28.92111328 21.63906525 29.83441406 21.64141174 30.77539062 21.64382935 C33.68822361 21.64454486 36.59577981 21.58501347 39.5078125 21.51953125 C42.41878145 21.48583948 45.32907596 21.46494418 48.24023438 21.45950317 C50.04899529 21.45278175 51.85780275 21.42805292 53.66601562 21.38302612 C58.44644947 21.32935604 61.65087924 21.47051766 65.5078125 24.64453125 C67.41683857 28.09895938 67.57920396 30.76343195 67.5078125 34.64453125 C68.46279633 34.6356488 69.41778015 34.62676636 70.40170288 34.61761475 C79.43423292 34.53626614 88.46668791 34.47644034 97.49950218 34.43728256 C102.14256523 34.41647379 106.78533078 34.38827993 111.42822266 34.34277344 C115.91512572 34.29907478 120.40174397 34.27534376 124.88884354 34.26502228 C126.59435123 34.25767377 128.29984465 34.2433245 130.00522995 34.22161102 C142.25280171 34.07197831 152.41341859 34.797455 161.75 43.5859375 C169.00002803 52.07652588 169.66133878 61.28058884 169.62133789 71.96435547 C169.62148392 72.98935654 169.62162994 74.0143576 169.6217804 75.07041931 C169.62108566 78.44670758 169.61331379 81.82294016 169.60546875 85.19921875 C169.60360301 87.54476898 169.60217984 89.8903196 169.60118103 92.23587036 C169.59736812 98.40076783 169.5875483 104.56564164 169.57647705 110.73052979 C169.56623657 117.02477702 169.56167776 123.31902808 169.55664062 129.61328125 C169.54592493 141.95704163 169.52886323 154.30078447 169.5078125 166.64453125 C170.12414551 166.69786621 170.74047852 166.75120117 171.37548828 166.80615234 C172.58954346 166.92337646 172.58954346 166.92337646 173.828125 167.04296875 C174.63008301 167.11692871 175.43204102 167.19088867 176.25830078 167.26708984 C179.64797813 167.83583753 181.23563122 169.10503453 183.5078125 171.64453125 C186.37951517 177.14398127 186.97520809 181.55245847 186.8828125 187.70703125 C186.89441406 188.48369141 186.90601563 189.26035156 186.91796875 190.06054688 C186.88495421 196.5589093 185.34208596 200.68228522 180.8203125 205.51953125 C176.56491628 208.24940807 174.45600519 208.07109959 169.5078125 207.64453125 C169.5078125 209.95453125 169.5078125 212.26453125 169.5078125 214.64453125 C170.23742187 214.71929687 170.96703125 214.7940625 171.71875 214.87109375 C188.45014448 216.97801009 205.94809106 223.0466829 219.7109375 232.94921875 C222.26817876 234.84545226 222.26817876 234.84545226 224.6484375 234.58203125 C226.79636272 233.49904374 228.4337489 232.21232145 230.2578125 230.64453125 C234.5013989 227.37720591 237.13574283 226.5592603 242.5078125 226.64453125 C249.45754444 228.7637705 253.76479479 233.20165286 258.8203125 238.26953125 C259.63048828 239.03910156 260.44066406 239.80867187 261.27539062 240.6015625 C266.22120406 245.51854938 269.188789 249.52838962 269.5078125 256.64453125 C268.71523806 263.2115766 265.26603276 266.45882412 260.5078125 270.64453125 C261.03568359 271.59199219 261.03568359 271.59199219 261.57421875 272.55859375 C268.41116083 284.9472042 274.71843564 296.96103271 278.5078125 310.64453125 C278.70536133 311.33095703 278.90291016 312.01738281 279.10644531 312.72460938 C288.2194868 345.62701449 282.97790463 382.5566375 266.69140625 412.28979492 C254.44359667 433.71476295 237.11985306 451.64331831 215.5078125 463.64453125 C214.90630371 463.98081543 214.30479492 464.31709961 213.68505859 464.66357422 C206.09297889 468.85210433 198.38231353 472.27428055 190.1328125 474.95703125 C189.43978027 475.18729004 188.74674805 475.41754883 188.03271484 475.65478516 C169.2527331 481.40565353 150.14112143 481.08778251 130.72154641 481.0513643 C126.42304376 481.04658916 122.12458399 481.05917992 117.82609558 481.06938171 C109.43104666 481.08648606 101.03607286 481.08742787 92.64101106 481.08216881 C85.81705265 481.07811309 78.9931163 481.0795872 72.16915894 481.08491707 C70.70759423 481.0860397 70.70759423 481.0860397 69.21650296 481.08718501 C67.23664689 481.08871659 65.25679081 481.09025494 63.27693474 481.09179998 C44.75830552 481.10549268 26.23971867 481.10010829 7.72109044 481.08861477 C-9.21011757 481.07866792 -26.14121652 481.09165384 -43.07240772 481.11554896 C-60.48652831 481.13993955 -77.90059809 481.14954903 -95.31473541 481.14289623 C-105.08015622 481.13940623 -114.84549302 481.14162265 -124.61090088 481.15914726 C-132.91609849 481.17386794 -141.22115278 481.17450548 -149.52634758 481.15707635 C-153.76060848 481.14856626 -157.99461333 481.14641741 -162.22886086 481.16172791 C-166.10855354 481.17558282 -169.98777093 481.17080199 -173.86743617 481.15148867 C-175.26679624 481.14773108 -176.66619447 481.15064374 -178.06552052 481.16110032 C-189.49377807 481.24039315 -198.32545197 479.49051359 -206.80078125 471.51171875 C-212.21591297 465.53381352 -213.6147826 459.79557059 -213.62640858 451.89929676 C-213.62876081 451.21865153 -213.63111304 450.5380063 -213.63353655 449.83673546 C-213.64021822 447.54534124 -213.63976858 445.25400384 -213.63935852 442.96260071 C-213.64265766 441.3073921 -213.64638333 439.65218429 -213.6505 437.99697751 C-213.66052233 433.43995654 -213.66423716 428.88294874 -213.66688931 424.32591832 C-213.67079162 419.41438113 -213.68036996 414.50285438 -213.68910217 409.59132385 C-213.70886779 397.72632881 -213.71893255 385.86133291 -213.72782996 373.99632552 C-213.73221237 368.41031719 -213.73757927 362.82430981 -213.74281883 357.23830223 C-213.75983058 338.67201719 -213.77432539 320.10573275 -213.78156757 301.53944111 C-213.7834775 296.7210369 -213.78539783 291.9026327 -213.78735352 287.08422852 C-213.78783726 285.88662418 -213.788321 284.68901984 -213.7888194 283.45512446 C-213.79712208 264.04891693 -213.82246329 244.64277099 -213.85493419 225.23659036 C-213.88799162 205.31769044 -213.90601511 185.39882184 -213.90921181 165.47989434 C-213.91137804 154.29409128 -213.92014329 143.10837805 -213.94567299 131.9226017 C-213.9673619 122.39761614 -213.97543927 112.87274224 -213.96570621 103.34773479 C-213.96115639 98.48789024 -213.96308743 93.62827618 -213.98246765 88.76846313 C-214.00006318 84.31775295 -213.99913097 79.86744202 -213.98357036 75.4167278 C-213.98118881 73.80834849 -213.98554619 72.19994179 -213.99739901 70.59160439 C-214.07457595 59.42588104 -213.02999401 50.70593532 -205.26953125 42.21484375 C-198.44657215 36.18664692 -191.65997935 34.48695957 -182.78613281 34.53100586 C-182.01501663 34.53085983 -181.24390045 34.53071381 -180.44941711 34.53056335 C-177.9063534 34.53125876 -175.36336338 34.53903376 -172.8203125 34.546875 C-171.05483032 34.5487405 -169.28934763 34.55016378 -167.52386475 34.55116272 C-162.88127204 34.5549775 -158.2387107 34.56479893 -153.59613037 34.5758667 C-148.85705998 34.58610315 -144.11798451 34.59066513 -139.37890625 34.59570312 C-130.08331956 34.60642212 -120.78775614 34.62348608 -111.4921875 34.64453125 C-111.51925781 33.37480469 -111.54632813 32.10507812 -111.57421875 30.796875 C-111.63577947 27.9093842 -111.58483136 26.81658413 -110.1796875 24.20703125 C-107.45342089 21.68271031 -104.9354178 21.52608356 -101.39135742 21.59790039 C-100.57007858 21.61023209 -99.74879974 21.62256378 -98.90263367 21.63526917 C-98.01824112 21.64992722 -97.13384857 21.66458527 -96.22265625 21.6796875 C-94.34570999 21.68571758 -92.46875274 21.6888827 -90.59179688 21.68945312 C-87.6344306 21.69117181 -84.68108313 21.70700093 -81.72436523 21.77124023 C-70.65706263 22.54038627 -70.65706263 22.54038627 -60.95800781 18.49658203 C-59.4367726 15.91542309 -58.50191227 13.45490957 -57.4921875 10.64453125 C-43.99177493 -6.78543307 -18.82032963 -10.2361354 0 0 Z " fill="#010101" transform="translate(221.4921875,18.35546875)"/>
<path d="M0 0 C18.81 0 37.62 0 57 0 C57.66 2.97 58.32 5.94 59 9 C61.83630258 11.83630258 63.69822099 11.25674665 67.67417908 11.26742554 C68.71487316 11.27422221 68.71487316 11.27422221 69.77659136 11.28115618 C72.11276505 11.293866 74.44870757 11.29217563 76.78491211 11.29052734 C78.45519818 11.29650847 80.12548148 11.30331305 81.79576111 11.31088257 C86.34116839 11.32859143 90.88650044 11.33323998 95.43193889 11.33451414 C99.22189019 11.33640999 103.01182384 11.34376384 106.80176836 11.35085833 C115.7404946 11.36715821 124.67918053 11.3720258 133.61791992 11.37060547 C142.84974061 11.36940339 152.08132775 11.3905148 161.31308931 11.4220928 C169.22989504 11.44821145 177.14662429 11.45897464 185.06347281 11.45769465 C189.79594311 11.45718374 194.52820594 11.46293759 199.26063347 11.48405075 C203.71022606 11.50335925 208.15941171 11.50360865 212.60901833 11.48901749 C214.24451158 11.4869191 215.88002981 11.49169117 217.51548004 11.5037384 C219.74375007 11.51909273 221.97059957 11.50995009 224.19883728 11.49447632 C225.44711272 11.49556585 226.69538816 11.49665539 227.98149014 11.49777794 C231.01563363 11.26498376 231.01563363 11.26498376 232.86257267 9.40659523 C234.44084596 6.37368299 234.44084596 6.37368299 235 0 C253.81 0 272.62 0 292 0 C292 28.71 292 57.42 292 87 C289.69 88.32 287.38 89.64 285 91 C281.06797516 95.37337457 281.55188824 100.36069757 281.625 105.9375 C281.60759766 107.25911133 281.60759766 107.25911133 281.58984375 108.60742188 C281.61322726 113.81025263 282.06689723 117.52389056 285 122 C289.19376054 125.52657136 292.57216103 126.56577288 298 127 C298 129.64 298 132.28 298 135 C297.06542969 135.13535156 296.13085938 135.27070313 295.16796875 135.41015625 C277.1741283 138.26082665 260.584224 145.04465839 245.20703125 154.765625 C243 156 243 156 241.0625 155.5 C239.29949797 154.21781671 237.6093818 152.83642151 235.9375 151.4375 C231.61793848 147.853183 228.50662808 147.62666928 223 148 C219.34312229 149.38961353 217.34742264 150.59434908 214.79458618 153.57504272 C211.32309924 156.58736976 208.79927764 156.69574658 204.41162109 156.61181641 C203.66468491 156.61748123 202.91774872 156.62314606 202.1481781 156.62898254 C199.68941449 156.64244273 197.23213576 156.62157398 194.7734375 156.6015625 C193.06140128 156.60706337 191.34937165 156.6151886 189.63735962 156.62582397 C185.13717591 156.64869397 180.63747832 156.64449329 176.13726807 156.63201904 C168.92737964 156.6136984 161.71777402 156.62360708 154.50795364 156.65787888 C151.98892043 156.66399456 149.47049317 156.65071103 146.95150757 156.63589478 C145.41086672 156.63884188 143.87022701 156.64249603 142.32958984 156.64697266 C141.62822403 156.63768234 140.92685822 156.62839203 140.20423889 156.61882019 C137.37520486 156.64212833 135.44805802 156.69664177 133.06924438 158.30722046 C131.22511412 161.22676442 131.59005345 163.6618638 132 167 C134.12588422 169.8313275 135.32008119 170.87552267 138.83477783 171.51898193 C139.92731873 171.52786438 141.01985962 171.53674683 142.14550781 171.54589844 C143.38649231 171.56561707 144.62747681 171.58533569 145.90606689 171.60565186 C147.25508581 171.60731488 148.60410532 171.60854582 149.953125 171.609375 C151.33748305 171.62435961 152.72182324 171.64108737 154.10614014 171.65948486 C157.74260283 171.70314018 161.37882439 171.72315303 165.01550293 171.73822021 C168.72923022 171.75779818 172.44269735 171.79976729 176.15625 171.83984375 C183.43743003 171.91512587 190.71850079 171.96542897 198 172 C198.12393631 172.62122742 198.24787262 173.24245483 198.37556458 173.88250732 C198.54529282 174.6956842 198.71502106 175.50886108 198.88989258 176.34667969 C199.13767204 177.55695831 199.13767204 177.55695831 199.39045715 178.79168701 C200.18829109 181.68215986 201.51205559 183.22017357 203.6875 185.25 C205.63671875 187.078125 205.63671875 187.078125 207 189 C206.6224 193.3776 206.6224 193.3776 205 195 C202.87408968 195.10816746 200.74459655 195.14630175 198.6159668 195.15771484 C197.94924957 195.16279556 197.28253235 195.16787628 196.59561157 195.17311096 C195.14309199 195.18383609 193.69055566 195.19244781 192.23801231 195.19923019 C189.93900712 195.21098973 187.64019231 195.23043553 185.34126282 195.25234985 C178.80317522 195.31405885 172.26510499 195.36799536 165.72680664 195.40136719 C161.73140098 195.42231224 157.73633851 195.45761757 153.74112892 195.50212479 C152.2177516 195.51629083 150.69431352 195.5250086 149.17087364 195.52817917 C147.03762305 195.53308772 144.90528249 195.55624336 142.7722168 195.58349609 C141.55833786 195.59158295 140.34445892 195.5996698 139.09379578 195.60800171 C135.74245804 196.03263176 134.31650261 196.56705785 132 199 C131.33323122 202.45749949 131.33323122 202.45749949 132 206 C134.10701903 208.78017962 135.2982542 209.86799087 138.7588501 210.51898193 C139.81586121 210.52786438 140.87287231 210.53674683 141.96191406 210.54589844 C143.16285706 210.56561707 144.36380005 210.58533569 145.60113525 210.60565186 C146.89291687 210.60688049 148.18469849 210.60810913 149.515625 210.609375 C150.85514321 210.62436026 152.19464296 210.64108815 153.53411865 210.65948486 C157.05221413 210.70313311 160.57006041 210.7231514 164.08837891 210.73822021 C167.68146485 210.75780079 171.27428202 210.79976958 174.8671875 210.83984375 C181.91135589 210.91511783 188.95550475 210.96542602 196 211 C195.65700867 211.94799469 195.31401733 212.89598938 194.96063232 213.87271118 C194.50589005 215.13597378 194.05124429 216.39927112 193.59667969 217.66259766 C193.15056335 218.89934235 192.70444702 220.13608704 192.24481201 221.41030884 C190.64772778 226.01585497 189.37112331 230.63467997 188.25 235.375 C188.04246094 236.179375 187.83492187 236.98375 187.62109375 237.8125 C185.70502524 245.79817908 185.365096 253.82618983 185 262 C184.07038704 262.00879936 184.07038704 262.00879936 183.12199402 262.01777649 C176.68185579 262.0816235 170.24222132 262.16602033 163.80249023 262.26245117 C161.39793533 262.29574176 158.99330149 262.32376067 156.58862305 262.34643555 C153.13556221 262.3799051 149.68322739 262.43221797 146.23046875 262.48828125 C144.61316109 262.49786613 144.61316109 262.49786613 142.96318054 262.50764465 C141.96236954 262.52743881 140.96155853 262.54723297 139.93041992 262.56762695 C139.04883713 262.57873001 138.16725433 262.58983307 137.25895691 262.60127258 C134.51622988 263.08539003 133.61930243 263.75827712 132 266 C131.5336154 269.66445044 131.38132589 271.98609964 133.33300781 275.18457031 C137.6194516 278.10236562 142.04018728 277.60344999 147.109375 277.609375 C148.19132141 277.62591125 149.27326782 277.64244751 150.38800049 277.65948486 C153.84205758 277.70805101 157.29567411 277.72935566 160.75 277.75 C163.09247018 277.77815236 165.43491977 277.80807874 167.77734375 277.83984375 C173.51814896 277.91381224 179.25882982 277.96540427 185 278 C185.20496094 279.24136719 185.40992188 280.48273438 185.62109375 281.76171875 C185.89318572 283.40365303 186.16532355 285.04557972 186.4375 286.6875 C186.57220703 287.50412109 186.70691406 288.32074219 186.84570312 289.16210938 C186.97783203 289.95810547 187.10996094 290.75410156 187.24609375 291.57421875 C187.42676392 292.66609497 187.42676392 292.66609497 187.61108398 293.7800293 C188.03423776 296.1954325 188.51058041 298.59722684 189 301 C187.99521858 301.00879936 187.99521858 301.00879936 186.97013855 301.01777649 C180.01097968 301.0816098 173.05228759 301.16600328 166.09350586 301.26245117 C163.49493557 301.29574743 160.89629213 301.32376454 158.29760742 301.34643555 C154.56657681 301.37989451 150.83621939 301.43220729 147.10546875 301.48828125 C145.35691841 301.49786613 145.35691841 301.49786613 143.57304382 301.50764465 C142.49214981 301.52743881 141.4112558 301.54723297 140.29760742 301.56762695 C139.34496506 301.57873001 138.39232269 301.58983307 137.41081238 301.60127258 C134.96255955 301.82107985 134.96255955 301.82107985 133.19624329 303.31217957 C131.1616216 306.18289667 131.58411428 308.613502 132 312 C134.09270058 314.75824168 135.28791835 315.86417752 138.72088623 316.51898193 C139.76013245 316.52786438 140.79937866 316.53674683 141.87011719 316.54589844 C143.05103943 316.56561707 144.23196167 316.58533569 145.44866943 316.60565186 C147.35353119 316.60749481 147.35353119 316.60749481 149.296875 316.609375 C151.25273529 316.63417938 151.25273529 316.63417938 153.24810791 316.65948486 C156.70701979 316.70312939 160.16567822 316.72315054 163.62481689 316.73822021 C167.15758229 316.75780216 170.69007438 316.79977078 174.22265625 316.83984375 C181.1483344 316.91511377 188.07400242 316.96542445 195 317 C195.75531006 318.67872192 195.75531006 318.67872192 196.52587891 320.39135742 C200.23169178 328.51657526 203.93226547 336.18039722 209.375 343.3125 C210.40587624 344.70277603 211.43460684 346.09464621 212.4609375 347.48828125 C212.90228027 348.07134033 213.34362305 348.65439941 213.79833984 349.25512695 C215 351 215 351 217 355 C145.39 355 73.78 355 0 355 C0 237.85 0 120.7 0 0 Z " fill="#E9ECEE" transform="translate(53,99)"/>
<path d="M0 0 C18.23051537 15.07432796 31.46761445 34.25150022 35 58 C36.69857135 83.97954122 33.34392414 108.60535744 15.859375 128.90234375 C14.93898438 129.94068359 14.93898438 129.94068359 14 131 C13.51015625 131.62003906 13.0203125 132.24007812 12.515625 132.87890625 C-0.19239195 148.8353208 -21.39754839 158.2358682 -41 162 C-45.23990918 162.4112209 -49.42976016 162.47841829 -53.6875 162.4375 C-54.8230835 162.42847656 -55.95866699 162.41945313 -57.12866211 162.41015625 C-82.201223 161.89792687 -103.06501139 151.51061982 -120.69677734 133.79614258 C-138.23976871 115.31531834 -144.50692965 91.75872679 -144.20703125 66.875 C-143.58845548 43.22491274 -133.12282477 22.90515361 -116.453125 6.37548828 C-84.75643301 -23.62773125 -34.84218034 -26.31149902 0 0 Z " fill="#EAEDEF" transform="translate(425,293)"/>
<path d="M0 0 C0.74185547 -0.00029205 1.48371094 -0.00058411 2.24804688 -0.00088501 C4.69380494 0.00050545 7.13925626 0.01605313 9.58496094 0.03173828 C11.28318109 0.03546942 12.98140339 0.03831592 14.67962646 0.04031372 C19.144714 0.04794221 23.609671 0.06758397 28.07470703 0.08972168 C32.63279454 0.11019699 37.19090318 0.11931904 41.74902344 0.12939453 C50.68919413 0.15083062 59.62923374 0.18600638 68.56933594 0.22705078 C68.56933594 4.84705078 68.56933594 9.46705078 68.56933594 14.22705078 C66.53036133 14.23639648 64.49138672 14.24574219 62.390625 14.25537109 C55.65299538 14.28914203 48.91567203 14.34469129 42.17828751 14.41095352 C38.09345139 14.45045898 34.00883182 14.48263215 29.92382812 14.49804688 C25.98133918 14.51319364 22.03944545 14.54760284 18.09722137 14.5953598 C16.59339319 14.61019426 15.08948003 14.61809298 13.58557892 14.61893463 C11.47828254 14.62130005 9.37263685 14.64834016 7.265625 14.68115234 C6.06649475 14.69003479 4.8673645 14.69891724 3.63189697 14.70806885 C-0.14249049 15.34767697 -1.10130607 16.23427711 -3.43066406 19.22705078 C-4.02732007 22.19900015 -4.02732007 22.19900015 -3.928442 25.56458282 C-3.93763959 26.87635356 -3.94683718 28.1881243 -3.95631349 29.53964567 C-3.94628298 30.99896715 -3.93587847 32.4582861 -3.92514038 33.91760254 C-3.92831582 35.46500856 -3.93324228 37.01241181 -3.9397732 38.5598073 C-3.95262593 42.81877222 -3.94044457 47.07735814 -3.92424464 51.33629823 C-3.91110962 55.92668025 -3.92098344 60.51701923 -3.92800903 65.10740662 C-3.93810274 74.10264522 -3.92679767 83.09773701 -3.90830843 92.09295738 C-3.88756191 102.56186788 -3.88768024 113.03074646 -3.88865359 123.49967366 C-3.88965536 142.17526922 -3.87131772 160.85079633 -3.84228516 179.52636719 C-3.81410928 197.66016894 -3.79994357 215.79391044 -3.80126953 233.92773438 C-3.80134944 235.04454521 -3.80142936 236.16135605 -3.80151169 237.31200963 C-3.8015924 238.42686386 -3.80167311 239.54171809 -3.80175626 240.69035578 C-3.80313516 261.31718069 -3.79136031 281.94397992 -3.77344983 302.57079652 C-3.76741096 309.87317202 -3.76528998 317.17554281 -3.76438522 324.47792053 C-3.7630224 333.37355748 -3.75411336 342.26915118 -3.73571961 351.16476977 C-3.72647126 355.70595576 -3.72039716 360.24708635 -3.72290802 364.78828239 C-3.7250933 368.94196411 -3.71809087 373.09552318 -3.70361097 377.2491793 C-3.69997565 378.7551731 -3.69973213 380.26117951 -3.70314555 381.76717383 C-3.70726034 383.80795762 -3.69796571 385.84875546 -3.68793297 387.88951874 C-3.68652412 389.02499256 -3.68511527 390.16046638 -3.68366373 391.33034849 C-3.43349355 394.19465478 -3.0129722 395.84927478 -1.43066406 398.22705078 C0.85247372 399.36861967 2.09620659 399.35004876 4.63216496 399.3461628 C5.48751207 399.34732035 6.34285919 399.3484779 7.22412592 399.34967053 C8.16933444 399.3458738 9.11454296 399.34207707 10.08839417 399.33816528 C11.0883068 399.3381643 12.08821944 399.33816332 13.11843246 399.3381623 C16.49084016 399.33712384 19.86319739 399.32909472 23.2355957 399.32128906 C25.6449022 399.31941104 28.05420916 399.31806549 30.46351624 399.31721497 C34.98885042 399.3152236 39.51417762 399.31183428 44.03950899 399.30639736 C52.9375683 399.29594755 61.8355694 399.30018303 70.73362732 399.31002808 C72.13420329 399.31151569 73.53477927 399.31300154 74.93535525 399.31448567 C77.77136302 399.31753661 80.60737069 399.3206682 83.44337833 399.32384467 C90.73837448 399.33196742 98.03337075 399.33940395 105.32836914 399.34521484 C106.4266683 399.34609825 106.4266683 399.34609825 107.54715531 399.34699951 C119.40060037 399.35585646 131.25393519 399.34297432 143.10736216 399.32292213 C155.27891062 399.30292445 167.45024593 399.30959462 179.62177318 399.3400687 C187.12749226 399.35795746 194.63259249 399.35468372 202.13827317 399.32408445 C207.89678255 399.30276131 213.65474418 399.3182011 219.41319847 399.34718895 C221.77181644 399.35328033 224.13050046 399.3474395 226.48905182 399.3286953 C229.71419582 399.30483744 232.93636155 399.32417494 236.16139221 399.35403442 C237.09098568 399.33685336 238.02057915 399.3196723 238.97834212 399.3019706 C246.40211623 399.44476956 250.14855673 402.40538038 255.56933594 407.22705078 C257.39645064 408.39547318 259.24483213 409.53304393 261.13183594 410.60205078 C262.62538874 411.45226197 264.11009318 412.31921291 265.56933594 413.22705078 C265.56933594 413.55705078 265.56933594 413.88705078 265.56933594 414.22705078 C230.89290238 414.318589 196.21649639 414.38908069 161.53996813 414.4313121 C157.44689262 414.43631498 153.35381734 414.44149226 149.26074219 414.44677734 C148.44587822 414.44782659 147.63101425 414.44887583 146.79145743 414.44995686 C133.59406008 414.4673662 120.39673236 414.49890679 107.19937633 414.53566197 C93.65954312 414.57305669 80.1197464 414.59528352 66.57986367 414.60340476 C58.22374977 414.60889559 49.8678327 414.62624319 41.51177938 414.65871665 C35.78316141 414.67984643 30.05464532 414.68625433 24.3259912 414.68105629 C21.01985883 414.67849206 17.71414358 414.68462702 14.40805626 414.70387268 C10.82342742 414.72372023 7.23964649 414.71900808 3.65499878 414.70806885 C2.61024694 414.71972021 1.56549511 414.73137158 0.48908412 414.74337602 C-6.71413513 414.68379865 -9.8179222 413.34148342 -15.24316406 408.66455078 C-17.95332355 405.3838314 -17.56074986 401.75268395 -17.57047176 397.70859909 C-17.57342319 397.04032713 -17.57637461 396.37205516 -17.57941547 395.68353254 C-17.58812673 393.42823098 -17.58968894 391.1729806 -17.59129333 388.91766357 C-17.59602292 387.29076587 -17.60117364 385.66386935 -17.60671097 384.03697419 C-17.62063666 379.55364756 -17.62820617 375.07032907 -17.63468397 370.5869863 C-17.64104955 366.74471914 -17.65112035 362.90246538 -17.66124462 359.06020656 C-17.69458597 346.40097211 -17.71609191 333.74172951 -17.73444447 321.08246553 C-17.73923832 317.78732396 -17.74422177 314.49218273 -17.7492497 311.19704151 C-17.78021678 290.74421013 -17.80690809 270.29137594 -17.82366848 249.83852768 C-17.82761811 245.10003403 -17.83162109 240.36154042 -17.83569336 235.62304688 C-17.83670172 234.44528672 -17.83771008 233.26752656 -17.838749 232.0540767 C-17.85576324 212.96651278 -17.89688051 193.87907834 -17.94771635 174.79157767 C-17.99945348 155.20494433 -18.02860548 135.61837764 -18.03586537 116.03167653 C-18.04053224 105.03030943 -18.05533215 94.02915446 -18.09560966 83.02785492 C-18.12986311 73.6604906 -18.14386794 64.29337667 -18.13118552 54.9259533 C-18.12534787 50.14523312 -18.12930022 45.36504281 -18.15935516 40.58440208 C-18.18664325 36.20822592 -18.18627572 31.83295792 -18.16384471 27.45676222 C-18.16061234 25.87327897 -18.16754517 24.28973571 -18.18564194 22.70635256 C-18.32846525 9.40407613 -18.32846525 9.40407613 -14.63514805 4.86346817 C-10.17536659 0.58193388 -6.01390046 -0.06210658 0 0 Z " fill="#7F737F" transform="translate(41.4306640625,68.77294921875)"/>
<path d="M0 0 C18.97686378 16.44838964 33.58686307 41.58887975 35.640625 66.87207031 C35.87318633 71.05379985 35.88998725 75.22715783 35.84765625 79.4140625 C35.84467529 80.15091278 35.84169434 80.88776306 35.83862305 81.64694214 C35.74618026 94.42491569 34.09666594 105.8197587 29.22265625 117.7265625 C28.92294922 118.48163086 28.62324219 119.23669922 28.31445312 120.01464844 C17.51881094 146.61410228 -2.70163306 166.61393154 -28.87109375 178.109375 C-33.43478144 180.03631374 -37.97140838 181.53525115 -42.77734375 182.7265625 C-44.17315674 183.10228394 -44.17315674 183.10228394 -45.59716797 183.4855957 C-53.71742757 185.55295336 -61.29026746 186.20196281 -69.65234375 186.1015625 C-70.88178711 186.09141113 -72.11123047 186.08125977 -73.37792969 186.07080078 C-100.43596484 185.60872949 -124.03048944 174.93506414 -143.77734375 156.7265625 C-144.77121094 155.85451172 -144.77121094 155.85451172 -145.78515625 154.96484375 C-163.03078571 139.04271609 -174.51501941 112.95473924 -175.96630859 89.69848633 C-176.04411027 86.55941156 -176.05055918 83.42894875 -176.02734375 80.2890625 C-176.03507812 79.24685547 -176.0428125 78.20464844 -176.05078125 77.13085938 C-175.9950169 54.6438833 -168.5720311 33.43753821 -154.77734375 15.7265625 C-154.06578125 14.80101562 -153.35421875 13.87546875 -152.62109375 12.921875 C-136.19342648 -7.83774563 -111.40829705 -21.61008417 -85.27734375 -25.5859375 C-53.59055393 -29.0402626 -24.70615483 -20.22360353 0 0 Z M-140.4296875 22.78515625 C-157.86036405 44.62425682 -161.37210592 68.33671728 -159.53125 95.3359375 C-156.66792868 117.17983213 -142.29138135 138.64537808 -125.17529297 151.97412109 C-104.63355644 166.91742987 -81.96919917 172.02806864 -56.77734375 169.7265625 C-40.02622811 167.07516899 -24.61082679 159.75215408 -11.77734375 148.7265625 C-11.12765625 148.21996094 -10.47796875 147.71335937 -9.80859375 147.19140625 C6.01200084 134.41564832 16.57072168 113.73723481 19.22265625 93.7265625 C21.33456423 67.38002605 16.95474222 43.25480228 -0.28515625 22.5859375 C-17.03453839 3.36877806 -39.07195537 -8.57429568 -64.73925781 -10.4140625 C-94.28286264 -11.81357007 -120.91878873 0.55324466 -140.4296875 22.78515625 Z " fill="#030302" transform="translate(440.77734375,285.2734375)"/>
<path d="M0 0 C2.69620564 2.17057789 5.27786537 4.4240981 7.84765625 6.7421875 C9.08708984 7.76892578 9.08708984 7.76892578 10.3515625 8.81640625 C31.63737499 26.83772794 46.17072317 55.36483041 48.66455078 83.08691406 C49.6088348 96.78029143 49.68588391 110.48256506 45.84765625 123.7421875 C45.62190918 124.53834473 45.39616211 125.33450195 45.16357422 126.15478516 C36.50968647 155.94402221 18.04107459 182.77919599 -9.52929688 198.05957031 C-38.82273223 213.56058618 -70.81951602 218.41393059 -102.85253906 208.89428711 C-131.91156113 199.61277711 -157.25647589 179.86519141 -171.85546875 152.88671875 C-186.87029452 123.64279128 -190.91448781 90.98512483 -180.83203125 59.4609375 C-175.74356028 44.6216352 -168.12683063 31.78036133 -158.15234375 19.7421875 C-157.52199219 18.97003906 -156.89164062 18.19789063 -156.2421875 17.40234375 C-152.26957447 12.68769366 -147.96833499 8.58708543 -143.15234375 4.7421875 C-142.20101562 3.98035156 -141.2496875 3.21851563 -140.26953125 2.43359375 C-99.7697515 -28.75893623 -41.61111789 -29.8032542 0 0 Z M-137.15234375 14.7421875 C-137.80589844 15.24234375 -138.45945312 15.7425 -139.1328125 16.2578125 C-144.64935319 20.65084719 -148.86433169 26.18535191 -153.15234375 31.7421875 C-153.76207031 32.52464844 -154.37179687 33.30710937 -155 34.11328125 C-171.79782214 56.80373348 -176.86536281 83.73829804 -173.85205078 111.50976562 C-170.49573537 133.9308077 -160.28370556 153.14354213 -145.15234375 169.7421875 C-144.5696875 170.40734375 -143.98703125 171.0725 -143.38671875 171.7578125 C-131.54003596 184.561803 -113.7580029 193.90081927 -97.15234375 198.7421875 C-96.15460938 199.03996094 -95.156875 199.33773437 -94.12890625 199.64453125 C-65.95614601 206.63936989 -37.10834464 201.25113284 -12.52709961 186.52832031 C-4.95466322 181.77375581 1.53961853 176.05022522 7.84765625 169.7421875 C8.66105469 168.92878906 9.47445312 168.11539063 10.3125 167.27734375 C19.44592995 157.64430738 26.01081599 146.05532656 30.84765625 133.7421875 C31.12416016 133.05850098 31.40066406 132.37481445 31.68554688 131.67041016 C40.08972352 110.0955797 40.50387675 81.3443463 31.84765625 59.7421875 C31.5635791 59.01837891 31.27950195 58.29457031 30.98681641 57.54882812 C20.47185446 31.53783282 0.55505549 10.41170134 -25.10742188 -1.13769531 C-63.55504839 -17.43001799 -104.85765765 -11.32878823 -137.15234375 14.7421875 Z " fill="#F8DB74" transform="translate(439.15234375,269.2578125)"/>
<path d="M0 0 C8.74548571 4.68508163 13.53553308 10.87246219 16.625 20.3125 C17.31868482 23.19335184 17.31868482 23.19335184 20.5 24.875 C22.45520809 25.19991235 22.45520809 25.19991235 24.60424805 25.19384766 C25.42487228 25.21371735 26.24549652 25.23358704 27.09098816 25.25405884 C27.97232925 25.26561005 28.85367035 25.27716125 29.76171875 25.2890625 C30.66751175 25.30842865 31.57330475 25.3277948 32.50654602 25.3477478 C35.40010151 25.40753542 38.2936968 25.45392568 41.1875 25.5 C43.14910591 25.53818054 45.11069506 25.57723231 47.07226562 25.6171875 C51.88142334 25.7148767 56.69040226 25.79445143 61.5 25.875 C61.5 38.415 61.5 50.955 61.5 63.875 C13.32 63.875 -34.86 63.875 -84.5 63.875 C-84.5 51.335 -84.5 38.795 -84.5 25.875 C-80.23835937 25.80152344 -80.23835937 25.80152344 -75.890625 25.7265625 C-73.136991 25.67254228 -70.38344353 25.61523887 -67.62988281 25.55761719 C-65.71718805 25.51935032 -63.80442189 25.48449342 -61.89160156 25.453125 C-59.14101658 25.40742473 -56.39092217 25.34943855 -53.640625 25.2890625 C-52.78631897 25.27751129 -51.93201294 25.26596008 -51.05181885 25.25405884 C-50.25129089 25.23418915 -49.45076294 25.21431946 -48.62597656 25.19384766 C-47.57340668 25.17386215 -47.57340668 25.17386215 -46.49957275 25.1534729 C-44.12500192 24.82277544 -42.52875775 24.14654631 -40.5 22.875 C-39.10663094 20.22625939 -39.10663094 20.22625939 -38.0625 17.125 C-34.73093203 8.67493216 -30.58228308 4.11904405 -22.5 -0.125 C-15.97875087 -2.29874971 -6.57115785 -2.20334681 0 0 Z " fill="#E2A66E" transform="translate(210.5,31.125)"/>
<path d="M0 0 C8.87570528 6.82395834 14.23641961 16.08352717 17.28125 26.75390625 C18.45753748 40.54068743 15.44146023 52.87274565 7.03125 64.06640625 C-3.369382 74.23066025 -14.66542044 78.43799246 -29.06640625 78.29272461 C-40.53279129 77.80889555 -49.61890987 72.75231725 -57.71875 64.75390625 C-60.1212992 61.92365049 -61.96527444 59.02151055 -63.71875 55.75390625 C-64.20472656 54.8825 -64.69070312 54.01109375 -65.19140625 53.11328125 C-70.1082028 43.08794678 -70.61777975 31.44179757 -67.15625 20.81640625 C-61.56797038 7.89473514 -52.58499282 -0.80186538 -39.71875 -6.24609375 C-26.39800085 -11.42638509 -11.63900759 -7.53890264 0 0 Z " fill="#030304" transform="translate(142.71875,353.24609375)"/>
<path d="M0 0 C8.64024712 7.0692931 15.21472693 17.63365588 16.3984375 28.87890625 C16.53565766 40.72100628 14.14564608 51.06641884 7.0625 60.6875 C6.505625 61.533125 5.94875 62.37875 5.375 63.25 C-2.9052321 71.97781221 -12.93667879 76.68232474 -24.87744141 77.20922852 C-37.52953988 77.41576815 -46.96510464 74.25588928 -56.68359375 65.91015625 C-65.77004766 56.94968437 -70.25740149 46.38197763 -70.4375 33.625 C-70.26297566 21.28612947 -65.43191958 11.61398076 -57.05859375 2.68359375 C-41.2281022 -12.12351249 -17.32746188 -12.37675849 0 0 Z " fill="#030303" transform="translate(143.9375,248.3125)"/>
<path d="M0 0 C10.22144287 7.17749372 16.22202612 17.33133852 18.55859375 29.49609375 C20.10764158 42.03369965 16.18229447 54.48998656 8.55859375 64.49609375 C1.4735757 72.29877526 -9.13409149 78.23587746 -19.76171875 78.8671875 C-32.83344221 79.20204704 -43.04310929 77.21802931 -53.34375 68.5625 C-62.75514387 59.29131311 -67.72532137 48.79845811 -68.00390625 35.55859375 C-67.88382424 23.94790555 -63.5341847 13.78348812 -55.44140625 5.49609375 C-39.5999777 -8.86109284 -18.4352601 -11.35612022 0 0 Z " fill="#030303" transform="translate(141.44140625,140.50390625)"/>
<path d="M0 0 C9.80553015 -0.0904505 19.6107822 -0.16380199 29.41663551 -0.20724869 C33.97013502 -0.22810333 38.52333374 -0.25638193 43.07666016 -0.30175781 C47.47277143 -0.34529168 51.86859379 -0.36915308 56.26490402 -0.37950897 C57.94022544 -0.38688684 59.61553145 -0.40129429 61.29072952 -0.42292023 C63.64159276 -0.45205544 65.99126976 -0.45595193 68.34228516 -0.45410156 C69.37591187 -0.47567322 69.37591187 -0.47567322 70.43041992 -0.49768066 C76.64319583 -0.44493915 79.86660756 2.0954588 84.34661865 6.09489441 C86.84387345 10.48274413 86.5260862 14.51671528 86.45410156 19.48168945 C86.45468567 20.53580521 86.45526978 21.58992096 86.45587158 22.67597961 C86.45308793 26.15541672 86.42198129 29.63399405 86.390625 33.11328125 C86.38316365 35.52751701 86.37747022 37.94175883 86.37347412 40.35600281 C86.35820966 46.70684563 86.31892019 53.05732191 86.2746582 59.40802002 C86.23372341 65.88980145 86.21546689 72.37164216 86.1953125 78.85351562 C86.15242727 91.56917137 86.08416559 104.28455519 86 117 C81.71 117 77.42 117 73 117 C72.99453156 115.17169647 72.99453156 115.17169647 72.98895264 113.30645752 C72.95203771 101.82894991 72.89430337 90.35171146 72.81609726 78.87440872 C72.77656046 72.9735527 72.74440236 67.0728473 72.72900391 61.171875 C72.71387829 55.47883259 72.67950542 49.7862041 72.63169098 44.09334564 C72.61683491 41.91964055 72.60895658 39.74587637 72.60811615 37.57212067 C72.60575749 34.53102807 72.57876613 31.49108966 72.54589844 28.45019531 C72.5509288 27.54820404 72.55595917 26.64621277 72.56114197 25.71688843 C72.49801824 21.95071157 72.42449068 19.67171201 70.38439941 16.44348145 C67.21191993 14.52290755 65.0078978 14.48153998 61.30371094 14.45410156 C60.63988403 14.44376389 59.97605713 14.43342621 59.29211426 14.42277527 C57.1059531 14.39336354 54.92071839 14.39184857 52.734375 14.390625 C51.21549719 14.37564209 49.69663567 14.3589147 48.17779541 14.34051514 C44.18623097 14.2968411 40.19488629 14.27684266 36.203125 14.26177979 C32.12747197 14.2422087 28.05205629 14.20023877 23.9765625 14.16015625 C15.98440804 14.08485342 7.99242536 14.03663353 0 14 C0 9.38 0 4.76 0 0 Z " fill="#655B65" transform="translate(288,69)"/>
<path d="M0 0 C7.38355457 4.49144023 12.57283002 9.93370947 15.1640625 18.31640625 C16.46632412 27.14412663 14.75746991 33.95818929 9.84375 41.28515625 C5.6421688 46.70358884 0.56368218 49.18319969 -5.8359375 51.31640625 C-15.454764 52.05741214 -22.5033025 51.23404252 -30.0859375 45.12890625 C-35.04444304 40.54058383 -38.38614465 34.5380334 -39.109375 27.75 C-39.43250421 18.21768841 -37.02670476 11.560278 -30.6484375 4.44140625 C-22.03925431 -3.44102771 -10.40389288 -5.27547218 0 0 Z " fill="#84C3F7" transform="translate(128.8359375,363.68359375)"/>
<path d="M0 0 C6.47229148 4.38086269 11.79084545 10.42357216 13.9375 18 C14.95126112 27.04781803 13.62382922 33.76447926 8.39453125 41.19140625 C3.46301351 47.31912738 -0.91556883 50.5464294 -8.8125 51.41015625 C-16.82679695 51.83465436 -23.72807983 51.39405264 -30.0625 46 C-36.9837056 39.62270054 -40.09458843 33.50722692 -40.5625 24.125 C-40.32648384 16.6291268 -37.9995787 11.16545915 -32.90234375 5.671875 C-24.17559551 -2.42841218 -11.20608511 -5.7481991 0 0 Z " fill="#85C3F7" transform="translate(130.0625,152)"/>
<path d="M0 0 C6.69109241 3.60386521 11.55082483 8.83072154 14.33984375 15.91796875 C16.28630855 23.3467841 15.78877161 30.57490551 12.26171875 37.40625 C8.24391914 43.8745342 3.59521821 48.68605565 -3.859375 51.01953125 C-12.22116456 52.65221644 -20.70677307 52.00955655 -28 47.4375 C-34.42462516 41.86657291 -38.31447715 36.05411338 -39.34375 27.62109375 C-39.72465262 20.16492496 -38.41197737 14.51033721 -34 8.4375 C-24.92328717 -1.34499701 -12.9118394 -5.18699755 0 0 Z " fill="#85C3F8" transform="translate(129,257.5625)"/>
<path d="M0 0 C1.10052704 -0.0112793 2.20105408 -0.02255859 3.33493042 -0.03417969 C4.53764084 -0.02608276 5.74035126 -0.01798584 6.97950745 -0.00964355 C8.24977783 -0.01665283 9.52004822 -0.02366211 10.82881165 -0.03088379 C14.31035977 -0.04911441 17.7914336 -0.04205064 21.27298999 -0.02936745 C24.91818181 -0.01923605 28.56333318 -0.02863371 32.20852661 -0.03491211 C38.33099146 -0.04218907 44.45326331 -0.03260065 50.57569885 -0.0135498 C57.65017602 0.00820951 64.72419189 0.00117494 71.79865783 -0.02085543 C77.87523957 -0.03901979 83.95168259 -0.04156245 90.0282827 -0.03110075 C93.65636729 -0.02487019 97.28423523 -0.02401772 100.91230583 -0.0372467 C104.9584207 -0.05096933 109.00374333 -0.03193881 113.04981995 -0.00964355 C114.85084923 -0.02178894 114.85084923 -0.02178894 116.68826294 -0.03417969 C124.75519662 0.04828698 124.75519662 0.04828698 128.83120728 2.3215332 C130.57936096 4.50793457 130.57936096 4.50793457 131.07936096 8.00793457 C130.5695447 11.57664838 130.14269667 13.03953722 127.57936096 15.50793457 C124.5580106 16.51505136 122.51512243 16.6431414 119.35490417 16.66183472 C118.27258011 16.67043518 117.19025604 16.67903564 116.07513428 16.68789673 C114.88753006 16.69215668 113.69992584 16.69641663 112.47633362 16.70080566 C110.60040779 16.7130719 110.60040779 16.7130719 108.68658447 16.72558594 C104.53886739 16.75044471 100.39118672 16.76710739 96.24342346 16.78137207 C94.8149299 16.78673268 93.3864364 16.7921102 91.95794296 16.79750443 C86.01646868 16.81912567 80.07499708 16.83786305 74.13349342 16.84912682 C65.62048447 16.86537266 57.10793141 16.89857376 48.59509432 16.95552766 C42.60774401 16.99421954 36.6205157 17.01375841 30.63304365 17.01904738 C27.0573516 17.0227012 23.48214618 17.03472484 19.90658951 17.06715012 C15.91798234 17.10280437 11.92994848 17.09886173 7.94117737 17.09143066 C6.75762161 17.107836 5.57406586 17.12424133 4.35464478 17.1411438 C-3.61997363 17.08017052 -3.61997363 17.08017052 -7.65809631 14.19412231 C-9.97570992 10.66198367 -10.0990792 8.65395777 -9.42063904 4.50793457 C-6.53769452 0.79779843 -4.64231613 0.0073244 0 0 Z " fill="#020202" transform="translate(193.42063903808594,148.4920654296875)"/>
<path d="M0 0 C1.25090927 -0.00540298 2.50181854 -0.01080597 3.79063416 -0.01637268 C7.21446948 -0.02672804 10.63733649 -0.01916836 14.06108665 -0.00266147 C17.64753978 0.01120901 21.23396428 0.00472669 24.82043457 0.00120544 C30.84277438 -0.00149511 36.8649147 0.01196546 42.88720703 0.03515625 C49.84519994 0.06176516 56.80285936 0.06351259 63.76088572 0.05176789 C70.46021691 0.04098048 77.15942774 0.04718469 83.85874939 0.06132317 C86.70713656 0.06707466 89.55543541 0.0670069 92.40382385 0.06225777 C96.38262504 0.05658986 100.36109391 0.0758264 104.33984375 0.09765625 C106.11046425 0.09090378 106.11046425 0.09090378 107.91685486 0.08401489 C109.00192825 0.09391953 110.08700165 0.10382416 111.20495605 0.11402893 C112.14514336 0.11645883 113.08533066 0.11888872 114.05400848 0.12139225 C117.20439882 0.57941436 119.10115457 1.65023785 121.66992188 3.50170898 C123.11423042 6.39032608 123.04680693 8.298186 122.66992188 11.50170898 C121.01232234 14.03408449 120.23778264 15.06623985 117.66992188 16.50170898 C113.50016012 17.26148974 109.36892124 17.18432602 105.14038086 17.14868164 C103.86835815 17.15744324 102.59633545 17.16620483 101.2857666 17.17523193 C97.80425696 17.19799017 94.32348965 17.18920479 90.84196734 17.17333651 C87.19630633 17.16066182 83.55070811 17.1724217 79.90504456 17.18026733 C73.78431809 17.18935825 67.6638935 17.17738972 61.54321289 17.15356445 C54.46803858 17.12634169 47.39358443 17.13517725 40.3184275 17.16269648 C34.24096941 17.18538825 28.16372807 17.1885878 22.0862413 17.17550313 C18.45760133 17.16771039 14.82929988 17.16666192 11.20068169 17.18318558 C7.15671006 17.20031525 3.11397986 17.17657422 -0.92993164 17.14868164 C-2.13264206 17.1588028 -3.33535248 17.16892395 -4.57450867 17.17935181 C-12.65135224 17.07587739 -12.65135224 17.07587739 -16.06993103 14.18392944 C-17.74122513 10.62658345 -17.96524723 8.38329798 -17.33007812 4.50170898 C-12.82888745 -1.06822255 -6.55192399 -0.05366237 0 0 Z " fill="#010101" transform="translate(201.330078125,187.498291015625)"/>
<path d="M0 0 C2.875 2.125 2.875 2.125 5 5 C5.46943423 8.60877566 5.42362956 10.36557892 3.3828125 13.421875 C2.26519531 14.57429688 2.26519531 14.57429688 1.125 15.75 C0.31417969 16.61625 -0.49664062 17.4825 -1.33203125 18.375 C-4 21 -4 21 -6.82421875 23.375 C-12.25177668 27.92303149 -12.25177668 27.92303149 -14.453125 34.390625 C-14.3595509 36.79236013 -14.22423768 39.19283932 -14.046875 41.58984375 C-13.9733036 46.94216325 -15.80535495 50.78050641 -19 55 C-21.16218432 57.08338033 -23.35589525 58.5918605 -26 60 C-26.78375 60.433125 -27.5675 60.86625 -28.375 61.3125 C-34.6976238 62.96842528 -40.34058386 62.62684187 -46.078125 59.40234375 C-50.8382522 55.92899891 -55.73960055 50.88186412 -57 45 C-57.75179904 38.13834205 -57.13861881 32.65570782 -53 27 C-49.16025713 22.81626079 -45.58379208 20.36492695 -40 19 C-37.91202744 19.3029183 -35.82863078 19.638499 -33.75 20 C-27.93249847 20.19267366 -25.48870089 18.93042657 -21.15625 15.03515625 C-17.14807866 11.10470568 -13.35107889 6.99215636 -9.65722656 2.76586914 C-6.68843065 -0.39755172 -4.23130495 -0.49780058 0 0 Z " fill="#040404" transform="translate(406,325)"/>
<path d="M0 0 C3.63 0 7.26 0 11 0 C11 28.71 11 57.42 11 87 C8.69 88.32 6.38 89.64 4 91 C2.68 92.65 1.36 94.3 0 96 C0 64.32 0 32.64 0 0 Z " fill="#CDCDD2" transform="translate(334,99)"/>
<path d="M0 0 C2.875 1.5 2.875 1.5 5 4 C5.9257756 7.57966567 6.18812864 8.65372464 5 12 C2.03910129 15.76145979 -1.40393576 18.85472444 -5 22 C-5.76054688 22.68835938 -6.52109375 23.37671875 -7.3046875 24.0859375 C-9.17725314 25.76064715 -11.06047868 27.40349446 -13 29 C-13.56976563 29.55816406 -14.13953125 30.11632812 -14.7265625 30.69140625 C-18.11446594 32.64148813 -21.2565382 32.81286599 -25 32 C-27.58192041 30.52950228 -29.4716838 28.65249883 -31.5 26.5 C-32.03625 25.9946875 -32.5725 25.489375 -33.125 24.96875 C-36.01817319 22.01653246 -37.35018181 19.94919013 -37.44140625 15.75 C-37 12 -37 12 -35.4375 9.5 C-32.03618625 7.40688385 -29.92927257 7.44852315 -26 8 C-23.0625 10 -23.0625 10 -21 12 C-15.98381862 9.95113718 -12.62985979 5.87419861 -8.8515625 2.1171875 C-5.52609227 -0.35186026 -4.04563971 -0.56996582 0 0 Z " fill="#020304" transform="translate(133,372)"/>
<path d="M0 0 C1.9375 1.0625 1.9375 1.0625 3 3 C3.87696348 6.50785392 4.12359329 7.67830915 3 11 C-0.29141026 15.11131354 -4.06249523 18.5144252 -8 22 C-9.15628906 23.06541016 -9.15628906 23.06541016 -10.3359375 24.15234375 C-19.06628444 32.06317537 -19.06628444 32.06317537 -23.75 31.91015625 C-28.06192453 30.70261008 -30.27781459 28.56909858 -33.375 25.4375 C-34.19291016 24.68629883 -34.19291016 24.68629883 -35.02734375 23.91992188 C-37.97596961 20.98977112 -39.35920596 18.98691406 -39.44921875 14.75390625 C-39 11 -39 11 -37.4375 8.5 C-34.05111671 6.41607182 -31.90614682 6.44197903 -28 7 C-26.62804426 8.29355827 -25.28817344 9.62298702 -24 11 C-19.74581189 10.83964258 -17.30955016 7.78426323 -14.375 5 C-9.21447707 0.11108354 -7.34373054 -1.54604853 0 0 Z " fill="#020304" transform="translate(135,267)"/>
<path d="M0 0 C1.9375 1.0625 1.9375 1.0625 3 3 C3.74127484 9.97670437 3.74127484 9.97670437 0.76171875 14.08984375 C-0.24118786 15.06210183 -1.26740722 16.01073761 -2.3125 16.9375 C-2.85285889 17.44112061 -3.39321777 17.94474121 -3.94995117 18.46362305 C-5.06723576 19.49362232 -6.19471616 20.51266967 -7.33203125 21.52050781 C-8.91359075 22.92335479 -10.45716488 24.35956527 -12 25.8046875 C-18.92037019 31.97535092 -18.92037019 31.97535092 -23.421875 32.078125 C-27.91077305 30.72557493 -30.22101044 28.74277597 -33.4375 25.4375 C-33.97826172 24.93669922 -34.51902344 24.43589844 -35.07617188 23.91992188 C-38.00022425 20.98847619 -39.35534481 18.96578105 -39.44921875 14.75390625 C-39 11 -39 11 -37.375 8.5 C-34.25991849 6.5325801 -32.62829011 6.4076261 -29 7 C-27.321702 8.31866272 -25.65385233 9.65080468 -24 11 C-19.74499935 10.84274998 -17.31253356 7.78709383 -14.375 5 C-9.21447707 0.11108354 -7.34373054 -1.54604853 0 0 Z " fill="#020304" transform="translate(135,161)"/>
<path d="M0 0 C15.18 0 30.36 0 46 0 C46 3.96 46 7.92 46 12 C30.82 12 15.64 12 0 12 C0 8.04 0 4.08 0 0 Z " fill="#827582" transform="translate(288,70)"/>
<path d="M0 0 C4.44674581 3.68679387 6.51424182 8.44714263 8.9375 13.5625 C9.37698975 14.48909424 9.81647949 15.41568848 10.26928711 16.37036133 C20.79470571 39.32799141 24.07894617 67.54492284 17 92 C16.66137939 93.19423584 16.66137939 93.19423584 16.31591797 94.41259766 C11.83324386 109.84328564 5.44885458 123.03683459 -4 136 C-5 133 -5 133 -3.99609375 130.94140625 C-3.48175781 130.15636719 -2.96742188 129.37132812 -2.4375 128.5625 C3.0710683 119.69535887 7.2160383 110.98928154 10.25 101 C10.49621094 100.19385254 10.74242187 99.38770508 10.99609375 98.55712891 C20.10461192 67.22458125 16.09068295 33.34932827 0.75195312 4.75292969 C0 3 0 3 0 0 Z " fill="#F2C65F" transform="translate(468,301)"/>
<path d="M0 0 C4.15123999 1.28311054 5.12351216 2.44471686 7.4375 6.0625 C7.96875 9.21875 7.96875 9.21875 7.9375 12.5625 C7.9478125 13.6659375 7.958125 14.769375 7.96875 15.90625 C7.32844332 19.71042497 6.1577422 21.36658912 3.4375 24.0625 C0 25.1875 0 25.1875 -3.5625 25.0625 C-7.25163283 22.30773269 -8.43553089 20.79817395 -9.2265625 16.21484375 C-9.23972976 14.8098972 -9.22611991 13.40447737 -9.1875 12 C-9.20683594 11.29294922 -9.22617187 10.58589844 -9.24609375 9.85742188 C-9.2105091 6.06765627 -8.85341115 4.37548704 -6.24609375 1.5703125 C-3.5625 0.0625 -3.5625 0.0625 0 0 Z " fill="#090A0A" transform="translate(371.5625,278.9375)"/>
<path d="M0 0 C1.1034375 -0.0103125 2.206875 -0.020625 3.34375 -0.03125 C7.1363031 0.60710052 8.79974632 1.80463808 11.5 4.5 C12.75610015 8.1897942 12.84352813 9.76386829 11.1875 13.3125 C9.5 15.5 9.5 15.5 7.5 16.5 C5.04306092 16.70353342 2.64757347 16.82340647 0.1875 16.875 C-1.78669922 16.94847656 -1.78669922 16.94847656 -3.80078125 17.0234375 C-7.5 16.5 -7.5 16.5 -10.47265625 14.19921875 C-12.5 11.5 -12.5 11.5 -12.625 7.9375 C-10.51996412 1.50544594 -6.47321288 -0.06049732 0 0 Z " fill="#070707" transform="translate(444.5,356.5)"/>
<path d="M0 0 C3.83147791 1.02628873 5.38247333 1.58474944 7.5 4.9375 C7.78622635 9.8987567 6.28139652 12.57599789 3.1875 16.25 C0.83456106 18.84793041 -1.20424238 20.67735738 -4.5 21.9375 C-10.59749492 21.72355281 -10.59749492 21.72355281 -13.4375 19.25 C-14.92482538 16.01288005 -15.18241405 14.48605304 -14.5 10.9375 C-10.95805437 5.83748539 -6.54496358 -0.11687435 0 0 Z " fill="#060606" transform="translate(426.5,302.0625)"/>
<path d="M0 0 C2.36497439 1.86708505 3.66030715 3.32061431 5 6 C5.14851844 7.93359586 5.22130833 9.87342097 5.25 11.8125 C5.27578125 12.85019531 5.3015625 13.88789063 5.328125 14.95703125 C4.95701851 18.39860214 4.04491005 20.23540073 2 23 C-1.09173752 24.54586876 -3.59429552 24.29359521 -7 24 C-9.1953125 22.48046875 -9.1953125 22.48046875 -11 20 C-11.40100915 17.16934716 -11.56122899 14.81653341 -11.5 12 C-11.51546875 11.2884375 -11.5309375 10.576875 -11.546875 9.84375 C-11.52099433 6.37574073 -11.25988236 4.35397769 -9.1875 1.53125 C-5.98117211 -0.71317952 -3.81673845 -0.54524835 0 0 Z " fill="#060606" transform="translate(374,427)"/>
<path d="M0 0 C1.11503906 0.01289063 2.23007812 0.02578125 3.37890625 0.0390625 C6.31878096 0.36196062 8.00866933 0.73374934 10.4375 2.375 C12.5166019 5.49365284 12.71909374 5.91239522 12.3125 9.375 C12.24804688 10.055625 12.18359375 10.73625 12.1171875 11.4375 C11.13465664 14.23827763 10.05898395 14.98790413 7.4375 16.375 C3.90625 16.80859375 3.90625 16.80859375 -0.0625 16.8125 C-1.3721875 16.83183594 -2.681875 16.85117187 -4.03125 16.87109375 C-7.5625 16.375 -7.5625 16.375 -9.99609375 14.59765625 C-11.63724569 12.26893941 -12.13048987 11.18581464 -12.125 8.375 C-12.14691406 7.715 -12.16882813 7.055 -12.19140625 6.375 C-10.38127778 0.6185666 -5.3332049 -0.13595656 0 0 Z " fill="#050606" transform="translate(296.5625,356.625)"/>
<path d="M0 0 C3.6875 0.8125 3.6875 0.8125 6.1875 2.375 C8.36821663 5.91866452 8.44081723 7.70349694 7.6875 11.8125 C4.91360456 15.89219197 1.78719206 19.07937196 -2.3125 21.8125 C-6.14943587 22.23107482 -8.42453064 22.35894269 -11.75 20.3125 C-13.47896109 17.54616226 -14.18671253 15.33867981 -14.01953125 12.05078125 C-12.1544602 6.14644031 -6.36994352 0.32389543 0 0 Z " fill="#050505" transform="translate(321.3125,406.1875)"/>
<path d="M0 0 C2.92142255 2.08435461 5.46043562 4.47126532 8 7 C8.84498047 7.73476563 8.84498047 7.73476563 9.70703125 8.484375 C11.66268699 10.77680529 11.53193286 13.14933897 11.4140625 16.05859375 C11 18 11 18 8.875 20.5 C5.47190663 22.27552698 3.79734272 22.45116943 0 22 C-4.43875043 18.94914055 -9.01479003 14.90636943 -10.78125 9.6953125 C-10.93061534 6.39682799 -10.15549295 4.23921993 -8.375 1.5 C-5.11833428 -0.55684151 -3.80396469 -0.80468484 0 0 Z " fill="#040404" transform="translate(318,302)"/>
<path d="M0 0 C4.94573047 1.57364151 8.23359726 5.64724928 11.234375 9.7109375 C12.609375 13.4609375 12.609375 13.4609375 12.234375 16.7109375 C10.234375 19.6484375 10.234375 19.6484375 7.234375 21.7109375 C2.98389637 22.23666764 0.95003696 22.1948613 -2.63671875 19.76953125 C-3.48363281 18.90457031 -4.33054687 18.03960937 -5.203125 17.1484375 C-6.06808594 16.30152344 -6.93304688 15.45460938 -7.82421875 14.58203125 C-10.24037366 11.00884441 -10.24985753 8.94422803 -9.765625 4.7109375 C-7.39824338 0.86394236 -4.53866908 -0.22181465 0 0 Z " fill="#030304" transform="translate(421.765625,406.2890625)"/>
<path d="M0 0 C13.53 0 27.06 0 41 0 C41 2.64 41 5.28 41 8 C27.47 8 13.94 8 0 8 C0 5.36 0 2.72 0 0 Z " fill="#8B9AA6" transform="translate(350,202)"/>
<path d="M0 0 C4.29477197 2.46551724 4.29477197 2.46551724 6 5 C6.73810279 8.14252854 6.70582012 10.85321863 6 14 C4.12379387 16.50160818 2.76108697 17.61945652 0 19 C-4.29322859 19.48602588 -6.32082639 19.46241608 -9.9375 17 C-12.2472973 13.64029484 -12.68169593 11.91074695 -12.43359375 7.93359375 C-11.75194607 4.89381354 -10.19767713 3.13303956 -8 1 C-5.09704195 -0.45147903 -3.22738221 -0.37239025 0 0 Z " fill="#050402" transform="translate(202,41)"/>
<path d="M0 0 C0.33 0 0.66 0 1 0 C1 12.54 1 25.08 1 38 C-47.18 38 -95.36 38 -145 38 C-145 37.67 -145 37.34 -145 37 C-144.29339391 36.99853344 -143.58678782 36.99706688 -142.85876942 36.99555588 C-125.66577489 36.95850484 -108.47299595 36.89951288 -91.28016376 36.81609726 C-82.96582528 36.77628718 -74.65158172 36.74390474 -66.3371582 36.72900391 C-59.09032683 36.71599754 -51.84370414 36.68905903 -44.59699029 36.64538693 C-40.75982777 36.62274903 -36.92292286 36.6070907 -33.08568764 36.60811615 C-29.4731985 36.60886141 -25.86127929 36.59096558 -22.24893761 36.55883217 C-20.29258553 36.54626454 -18.33613789 36.55340769 -16.37976074 36.56114197 C-14.62772087 36.54027275 -14.62772087 36.54027275 -12.84028625 36.51898193 C-11.32071052 36.51345118 -11.32071052 36.51345118 -9.77043629 36.50780869 C-6.25415505 35.86328993 -4.56304239 34.44067029 -2 32 C-0.55037817 29.10075634 -0.77873519 26.47699645 -0.68359375 23.2421875 C-0.6524221 22.24761032 -0.6524221 22.24761032 -0.62062073 21.23294067 C-0.55520769 19.11373306 -0.49627895 16.994401 -0.4375 14.875 C-0.39430691 13.43878919 -0.35069236 12.00259098 -0.30664062 10.56640625 C-0.19953501 7.04440406 -0.09824425 3.52226175 0 0 Z " fill="#C48958" transform="translate(271,57)"/>
<path d="M0 0 C0.99 1.485 0.99 1.485 2 3 C5.61540932 7.9410594 7.70965086 9.61827514 13.75 10.625 C14.8225 10.74875 15.895 10.8725 17 11 C17 13.64 17 16.28 17 19 C11.39 19.99 5.78 20.98 0 22 C0 14.74 0 7.48 0 0 Z " fill="#CBCBD0" transform="translate(334,215)"/>
<path d="M0 0 C2 2 2 2 2.1953125 5.4765625 C2.18201493 6.85950968 2.15816232 8.24238654 2.125 9.625 C2.11597656 10.33140625 2.10695313 11.0378125 2.09765625 11.765625 C2.07407603 13.51056098 2.03820461 15.25532295 2 17 C2.33 17 2.66 17 3 17 C2.95359375 18.11375 2.9071875 19.2275 2.859375 20.375 C2.41336742 35.79801006 5.37953835 48.38797742 11.92578125 62.3046875 C12.45751953 63.63886719 12.45751953 63.63886719 13 65 C12.505 65.99 12.505 65.99 12 67 C3.73131269 51.36575871 -1.19404629 37.45699749 -1.125 19.5625 C-1.12886719 18.56412109 -1.13273437 17.56574219 -1.13671875 16.53710938 C-1.12934583 10.93000587 -0.83284733 5.54570565 0 0 Z " fill="#CBCCD0" transform="translate(282,346)"/>
<path d="M0 0 C2.5625 0.3125 2.5625 0.3125 4.4375 1.4375 C5.5625 3.3125 5.5625 3.3125 5.375 6.375 C4.5625 9.3125 4.5625 9.3125 2.5625 11.3125 C-0.4375 11.125 -0.4375 11.125 -3.4375 10.3125 C-5.4375 7.3125 -5.4375 7.3125 -5.1875 4.75 C-4.19253762 1.51637226 -3.41216263 0.43745675 0 0 Z " fill="#96A2AF" transform="translate(370.4375,359.6875)"/>
<path d="M0 0 C3.45201639 1.47721422 5.64961936 3.43794001 8.25 6.125 C8.95640625 6.84945313 9.6628125 7.57390625 10.390625 8.3203125 C11.18726563 9.15175781 11.18726563 9.15175781 12 10 C11.34 11.32 10.68 12.64 10 14 C5.47384007 10.32167983 1.60575001 6.58913637 -2 2 C-1.34 1.34 -0.68 0.68 0 0 Z " fill="#8D99A5" transform="translate(461,263)"/>
<path d="M0 0 C0.99 0.33 1.98 0.66 3 1 C3.93123853 3.63750784 4.6860488 6.17397857 5.375 8.875 C7.10240141 15.25459224 9.16522722 21.08450248 12.1796875 26.99609375 C12.45039063 27.65738281 12.72109375 28.31867188 13 29 C12.67 29.66 12.34 30.32 12 31 C0 8.31067961 0 8.31067961 0 0 Z " fill="#C5C5C9" transform="translate(282,382)"/>
<path d="M0 0 C0.99 0.99 1.98 1.98 3 3 C-0.63 6.63 -4.26 10.26 -8 14 C-8.99 13.34 -9.98 12.68 -11 12 C-11 11.34 -11 10.68 -11 10 C-9.35546875 8.37890625 -9.35546875 8.37890625 -7.1875 6.5625 C-4.68897282 4.45536324 -2.2757944 2.34758602 0 0 Z " fill="#96A2AF" transform="translate(279,263)"/>
<path d="M0 0 C1 2 1 2 0.41088867 4.04711914 C0.0832251 4.86817139 -0.24443848 5.68922363 -0.58203125 6.53515625 C-0.93716797 7.42654297 -1.29230469 8.31792969 -1.65820312 9.23632812 C-2.03912109 10.16896484 -2.42003906 11.10160156 -2.8125 12.0625 C-3.36647461 13.46725586 -3.36647461 13.46725586 -3.93164062 14.90039062 C-6.74338152 21.87169076 -6.74338152 21.87169076 -9 23 C-8.51051418 17.08732203 -6.69849319 12.77453032 -3.9375 7.5625 C-3.37192383 6.46518555 -3.37192383 6.46518555 -2.79492188 5.34570312 C-1.87240704 3.55906047 -0.9374688 1.77884171 0 0 Z " fill="#B9B9BD" transform="translate(293,319)"/>
<path d="M0 0 C2.31 0 4.62 0 7 0 C7 1.98 7 3.96 7 6 C4.69 6 2.38 6 0 6 C0 4.02 0 2.04 0 0 Z " fill="#99A6B3" transform="translate(367,226)"/>
</svg>
